<?xml version="1.0" encoding="UTF-8" standalone="no"?>
<svg
   version="1.1"
   width="50"
   height="50"
   viewBox="0 0 64 64"
   enable-background="new 0 0 64.00 64.00"
   xml:space="preserve"
   id="svg32"
   sodipodi:docname="logo.svg"
   inkscape:version="1.1.2 (0a00cf5339, 2022-02-04, custom)"
   xmlns:inkscape="http://www.inkscape.org/namespaces/inkscape"
   xmlns:sodipodi="http://sodipodi.sourceforge.net/DTD/sodipodi-0.dtd"
   xmlns="http://www.w3.org/2000/svg"
   xmlns:svg="http://www.w3.org/2000/svg"><defs
   id="defs36" /><sodipodi:namedview
   id="namedview34"
   pagecolor="#505050"
   bordercolor="#eeeeee"
   borderopacity="1"
   inkscape:pageshadow="0"
   inkscape:pageopacity="0"
   inkscape:pagecheckerboard="0"
   showgrid="false"
   fit-margin-left="-3.9"
   lock-margins="true"
   inkscape:zoom="6.4921875"
   inkscape:cx="38.122744"
   inkscape:cy="41.280385"
   inkscape:window-width="1920"
   inkscape:window-height="1017"
   inkscape:window-x="-8"
   inkscape:window-y="-8"
   inkscape:window-maximized="1"
   inkscape:current-layer="svg32"
   scale-x="1.42222" />
	<g
   id="g30"
   transform="matrix(0.82486012,0,0,0.82486012,5.7803053,5.6079325)">
		<path
   fill="#95a2aa"
   fill-opacity="1"
   stroke-linejoin="round"
   stroke="#000000"
   stroke-opacity="1"
   d="M 15.5833,38.575 15.5,50.4917 26.25,61.575 27.5781,61.5729 27.5833,50.6583 Z"
   id="path2" />
		<path
   fill="#4e5d64"
   fill-opacity="1"
   stroke-linejoin="round"
   stroke="#000000"
   stroke-opacity="1"
   d="m 49.4792,61.5365 -10.9584,-11.0417 -11,-0.0208 v 11.052 z"
   id="path4" />
		<path
   fill="#c5cdd0"
   fill-opacity="1"
   stroke-linejoin="round"
   stroke="#000000"
   stroke-opacity="1"
   d="M 49.599,37.4844 38.5156,37.4792 38.5208,50.4844 49.625,61.5885 Z"
   id="path6" />
		<path
   fill="#a2cb7c"
   fill-opacity="1"
   stroke-linejoin="round"
   stroke="#000000"
   stroke-opacity="1"
   d="M 38.5052,26.4948 38.526,37.5521 H 49.6321 Z"
   id="path8" />
		<path
   fill="#84c1a7"
   fill-opacity="1"
   stroke-linejoin="round"
   stroke="#000000"
   stroke-opacity="1"
   d="m 27.5156,26.474 11,11.1093 V 26.4792 Z"
   id="path10" />
		<path
   fill="#6cb1a8"
   fill-opacity="1"
   stroke-linejoin="round"
   stroke="#000000"
   stroke-opacity="1"
   d="m 27.5656,26.5349 11,11.1094 -11.0083,0.0015 z"
   id="path12" />
		<path
   fill="#1abde6"
   fill-opacity="1"
   stroke-linejoin="round"
   stroke="#000000"
   stroke-opacity="1"
   d="m 27.5604,26.5279 -11.977,0.0138 10.9843,11.0364 h 0.9844 z"
   id="path14" />
		<path
   fill="#1aaae6"
   fill-opacity="1"
   stroke-linejoin="round"
   stroke="#000000"
   stroke-opacity="1"
   d="M 27.5396,26.5113 15.5625,26.5251 15.5469,14.5313 Z"
   id="path16" />
		<path
   fill="#0091c8"
   fill-opacity="1"
   stroke-linejoin="round"
   stroke="#000000"
   stroke-opacity="1"
   d="M 27.4849,26.5102 27.5052,14.5313 15.4922,14.5301 Z"
   id="path18" />
		<path
   fill="#076195"
   fill-opacity="1"
   stroke-linejoin="round"
   stroke="#000000"
   stroke-opacity="1"
   d="M 15.5521,2.48438 27.5638,14.51 15.5508,14.5089 Z"
   id="path20" />
		<path
   fill="#2a2e58"
   fill-opacity="1"
   stroke-linejoin="round"
   stroke="#000000"
   stroke-opacity="1"
   d="M 15.5219,2.47467 27.5336,14.5003 27.5208,2.48438 Z"
   id="path22" />
		<path
   fill="#554688"
   fill-opacity="1"
   stroke-linejoin="round"
   stroke="#000000"
   stroke-opacity="1"
   d="M 39.4271,14.4948 27.4954,14.4795 27.4827,2.46355 Z"
   id="path24" />
		<path
   fill="#7a6caa"
   fill-opacity="1"
   stroke-linejoin="round"
   stroke="#000000"
   stroke-opacity="1"
   d="M 39.4618,14.4823 39.4583,2.46355 27.5174,2.45104 Z"
   id="path26" />
		<path
   fill="#95a2aa"
   fill-opacity="1"
   stroke-linejoin="round"
   stroke="#000000"
   stroke-opacity="1"
   d="M 39.5618,14.5823 39.5583,2.56355 50.5156,13.5521 v 11.9531 z"
   id="path28" />
	</g>
</svg>
